# xmcd
#
# Track frame offsets: 
#        150
#        17864
#        30611
#        52933
#        69470
#        89761
#        105939
#        125370
#        146999
#        169073
#        198239
#        220780
#
# Disc length: 3250 seconds
#
# Revision: 0
# Processed by: cddbd v1.5.2PL0 Copyright (c) Steve Scherf et al.
# Submitted via: ExactAudioCopyFreeDBPlugin 1.0
#
DISCID=a60cb00c
DTITLE=Ben Rice - Pour Me Some Whiskey
DYEAR=2013
DGENRE=Blues
TTITLE0=Wreck On You
TTITLE1=Chop You Up
TTITLE2=Don't Worry Mama
TTITLE3=Cheaper By The Dozen
TTITLE4=Country Boy
TTITLE5=I Know You Love Me
TTITLE6=Pour Me Some Whiskey
TTITLE7=Gator Hunt
TTITLE8=Give Me A Call
TTITLE9=From The Bottom
TTITLE10=Wants Me Back Again
TTITLE11=Bad Bad Boy
EXTD=
EXTT0=
EXTT1=
EXTT2=
EXTT3=
EXTT4=
EXTT5=
EXTT6=
EXTT7=
EXTT8=
EXTT9=
EXTT10=
EXTT11=
PLAYORDER=
